<?xml version="1.0" encoding="UTF-8"?>
<svg width="155px" height="28px" viewBox="0 0 155 28" version="1.1" xmlns="http://www.w3.org/2000/svg" xmlns:xlink="http://www.w3.org/1999/xlink">
    <!-- Generator: Sketch 52.1 (67048) - http://www.bohemiancoding.com/sketch -->
    <title>thecustodian</title>
    <desc>Created with Sketch.</desc>
    <g id="8" stroke="none" stroke-width="1" fill="none" fill-rule="evenodd">
        <g id="Gallery-4-(-Spectral-Type-)-Copy" transform="translate(-1100.000000, -488.000000)" fill="#F3F3F3">
            <g id="Group-6" transform="translate(1049.000000, 471.000000)">
                <g id="CTA-Custodian">
                    <g id="Group-3" transform="translate(51.000000, 17.000000)">
                        <g id="Group-5">
                            <g id="thecustodian">
                                <path d="M29.5537559,0 C31.5733035,0 33.2510472,0.176449746 34.5869869,0.529349238 C35.9229266,0.88224873 36.9930187,1.30955474 37.7939123,1.81126727 C38.5970399,2.31404275 39.1644792,2.84020314 39.4984641,3.38974844 C39.832449,3.94141963 40,4.41549545 40,4.80985001 C40,5.19251211 39.8726613,5.52415259 39.6213348,5.80689737 C39.3677744,6.08964214 39.0337894,6.22995158 38.6182631,6.22995158 C38.3211393,6.22995158 38.1055571,6.19168537 37.9726333,6.11409 C37.8385926,6.03649463 37.7525831,5.93338845 37.7168389,5.80689737 C37.6788607,5.68040628 37.6755096,5.53797095 37.7056688,5.38278021 C37.734711,5.22758946 37.7715722,5.07133577 37.8162524,4.91720798 C37.8464116,4.83217196 37.8609327,4.75457659 37.8609327,4.68335892 C37.8609327,4.45695051 37.7682212,4.22097555 37.5816811,3.97330814 C37.396258,3.72670367 37.1214744,3.49710641 36.7584474,3.28451636 C36.3943033,3.07298925 35.9497347,2.90079131 35.4225077,2.76579662 C34.8952806,2.63186489 34.2898632,2.56383607 33.6073722,2.56383607 C30.8316113,2.56383607 28.2021782,2.75516712 25.7224239,3.13570332 C23.2437867,3.51836542 20.9382854,3.99456714 18.8081541,4.56643439 C16.6780229,5.13936459 14.7321977,5.75374985 12.9729126,6.40959017 C11.2136275,7.06649345 9.67327562,7.6723751 8.35185702,8.2219204 C8.08377548,8.33565608 7.89053337,8.4206921 7.77213069,8.47809141 C7.65372801,8.53336483 7.55319743,8.57907169 7.47165596,8.61414905 C7.39011449,8.65028936 7.30075398,8.68642967 7.20469143,8.72044408 C7.10751187,8.75552144 6.956716,8.8161096 6.7478358,8.90114562 C7.9653728,9.12649108 9.05333706,9.48045353 10.0106116,9.9598441 C10.9678861,10.4402976 11.6850042,11.0196055 12.1597319,11.6988308 C12.4870148,11.1195229 12.7953086,10.5710405 13.0846132,10.0555096 C13.3750349,9.54104169 13.6218933,9.07759537 13.8307735,8.66729656 C14.0374197,8.25912366 14.2060877,7.91897957 14.3311924,7.65005315 C14.4574141,7.38112673 14.5210835,7.19829928 14.5210835,7.10050785 C14.5210835,6.83158143 14.6696454,6.71359395 14.9656521,6.74973426 C15.2627758,6.78587457 15.5900586,6.9091768 15.9452667,7.11964096 C16.3027087,7.33223101 16.6288746,7.59690563 16.9259983,7.91472777 C17.223122,8.23361285 17.3716839,8.53336483 17.3716839,8.8161096 C17.3716839,9.14137239 17.2745043,9.56123775 17.0823792,10.0767686 C16.8891371,10.5933625 16.6333426,11.1684186 16.3138788,11.8040628 C15.993298,12.4397071 15.6302709,13.1189323 15.2225635,13.8396126 C14.8137392,14.55923 14.4026808,15.2873509 13.9860374,16.0218495 C13.5559899,16.7701665 13.1404636,17.508917 12.7383412,18.2370379 C12.3384529,18.9651589 11.9743089,19.645447 11.648143,20.2821542 C11.3219771,20.9177985 11.0605976,21.4864769 10.8673555,21.9881894 C10.6752304,22.488839 10.5791678,22.8885083 10.5791678,23.1850715 C10.5791678,23.7218613 10.616029,24.1853077 10.6897515,24.5732845 C10.7645909,24.9623243 10.8304943,25.2971537 10.8908126,25.5798984 L10.8673555,25.5586394 C10.9276738,25.8126845 10.9757051,26.0316523 11.0125663,26.2155427 C11.0505445,26.3994331 11.0505445,26.551435 11.0125663,26.6715484 C10.9757051,26.7916617 10.8908126,26.8756348 10.7567719,26.9255935 C10.6227311,26.9755521 10.4227869,27 10.1558224,27 C9.87433678,27 9.55040491,26.8979568 9.18737783,26.6928074 C8.82211673,26.487658 8.48254677,26.2017243 8.16308294,25.8350065 C7.84250209,25.4672257 7.57553756,25.0186607 7.36107233,24.4882485 C7.14549009,23.9588993 7.03825747,23.3689619 7.03825747,22.7184363 C7.03825747,22.3379001 7.14549009,21.8361876 7.36107233,21.2143616 C7.57553756,20.5925357 7.8614912,19.8931144 8.21781625,19.1150348 C8.5741413,18.3390811 8.97849763,17.5227353 9.43088523,16.6691863 C9.88550684,15.8135113 10.3490645,14.9620881 10.8226752,14.1149167 C10.8539514,14.0011811 10.8829936,13.895949 10.9131528,13.7960317 C10.9421949,13.6982402 10.957833,13.6057636 10.957833,13.5207275 C10.957833,13.167828 10.8304943,12.8319358 10.5791678,12.5141136 C10.3256074,12.1962915 9.98827143,11.907169 9.564926,11.6456832 C9.14269757,11.3841975 8.65233175,11.1503484 8.09494555,10.946262 C7.53867635,10.7411126 6.95895001,10.5678517 6.35800056,10.4275422 C5.7570511,10.2861698 5.15498464,10.1798748 4.55403519,10.1086571 C3.95308573,10.0385024 3.38452946,10.0023621 2.85060039,10.0023621 C2.49315834,10.0023621 2.14576934,9.92901854 1.80284837,9.7802055 C1.46327841,9.63245542 1.15833566,9.44537617 0.891371125,9.21896776 C0.623289584,8.99255935 0.407707344,8.74808078 0.244624407,8.48659502 C0.0815414689,8.2261722 0,7.99019724 0,7.77654423 C0,7.48104405 0.118402681,7.23018779 0.355208042,7.02503838 C0.594247417,6.82095193 0.987433678,6.71784575 1.53700084,6.71784575 C1.74476403,6.71784575 2.21167272,6.60092122 2.9399609,6.36813511 C3.66713209,6.13428605 4.58754538,5.82709342 5.70120078,5.44655722 C6.65065624,5.12129444 7.70846132,4.76095429 8.87461603,4.36447384 C10.0407707,3.96905634 11.2806479,3.56726113 12.5942474,3.15802527 C13.907847,2.74772647 15.2784139,2.35549782 16.702597,1.98133932 C18.1278972,1.60718082 19.5699525,1.27128853 21.0231779,0.974725405 C22.4786373,0.678162277 23.9262776,0.441124365 25.3672159,0.264674619 C26.8070371,0.088224873 28.2021782,0 29.5537559,0" id="Fill-4"></path>
                                <path d="M29.6162643,13.4499124 C29.6757356,13.3378321 29.7901898,13.2807346 29.9641152,13.2807346 C30.1346744,13.2807346 30.3018673,13.3124554 30.466816,13.3758971 C30.6295205,13.4393388 30.7675388,13.5270997 30.8808709,13.6391801 C30.9919587,13.7523177 31.0256217,13.8654554 30.9807377,13.9764783 C30.8314985,14.2587938 30.5891249,14.6764515 30.2524949,15.2315662 C29.9192312,15.7866809 29.5152753,16.3978358 29.0451154,17.0660882 C28.5760777,17.7332832 28.0688885,18.4173959 27.5246701,19.1205412 C26.9793295,19.8236865 26.4283785,20.4633901 25.8684506,21.0396521 C25.3096449,21.615914 24.7575717,22.0864398 24.2144754,22.4522868 C23.6680127,22.8170765 23.1821435,23 22.7512571,23 C22.0252585,23 21.4260571,22.7441186 20.952531,22.2302409 C20.4778827,21.7174207 20.2422417,21.024849 20.2422417,20.1535833 C20.2422417,19.8596368 20.3050793,19.4937898 20.4296324,19.0581569 C20.5564297,18.622524 20.7225005,18.1467114 20.930089,17.6349486 C21.1376774,17.1221283 21.3699521,16.5913329 21.6291572,16.0425624 C21.8883623,15.4948492 22.1442011,14.9534802 22.3955514,14.4195127 C21.9085601,14.9534802 21.3980046,15.52657 20.862763,16.1377249 C20.3297655,16.7488798 19.8236985,17.349461 19.3479281,17.9394686 C18.8687915,18.531591 18.436783,19.0888204 18.0496585,19.6164437 C17.661412,20.1430097 17.3786428,20.5966177 17.1991068,20.9762104 C17.1542228,21.1443308 17.1317808,21.2786157 17.1317808,21.375893 L17.1766648,21.5450708 C17.1923742,21.5873652 17.2024731,21.6360039 17.2103278,21.6931014 C17.2170604,21.7501989 17.2294035,21.7988375 17.2439908,21.841132 L17.2215488,21.8189274 C17.2664328,21.9881052 17.30234,22.1435373 17.3337588,22.283109 C17.3629334,22.4237381 17.3629334,22.5474493 17.3337588,22.6521281 C17.30234,22.7578643 17.2327698,22.8413958 17.1205598,22.9048375 C17.0094719,22.9682792 16.8333022,23 16.5954171,23 C16.2969385,23 15.9939715,22.9333862 15.6887603,22.8001587 C15.3824271,22.6658738 15.1075126,22.4755488 14.8617727,22.2302409 C14.6149107,21.9849331 14.4095665,21.6888719 14.2457399,21.3452295 C14.0819133,21.0015871 14,20.6167075 14,20.1958777 C14,19.8448338 14.0965006,19.3806521 14.2906239,18.8043902 C14.4847472,18.2291856 14.741708,17.5820805 15.0626286,16.8641321 C15.3824271,16.1482985 15.7482316,15.3827689 16.1589202,14.5675433 C16.5684867,13.7523177 16.9903962,12.9222891 17.4235268,12.0795721 C17.8409479,11.2643465 18.2505144,10.4565224 18.6522262,9.65504252 C19.0561821,8.85356262 19.414132,8.10918024 19.7271979,7.41978065 C20.0402637,6.73143841 20.2938583,6.11605411 20.4879816,5.57574247 C20.6809828,5.03437346 20.7786055,4.6093142 20.7786055,4.30056469 C20.7786055,4.07534672 20.9457984,3.97701212 21.2813062,4.00450351 C21.6179362,4.03410963 21.9904734,4.14196049 22.4011619,4.33228553 C22.8118505,4.52155321 23.1843877,4.76051687 23.5187734,5.04917652 C23.8554034,5.3367788 24.0237184,5.62861053 24.0237184,5.92361435 C24.0237184,6.28946137 23.9115084,6.77056078 23.6893326,7.36691258 C23.4660347,7.9653791 23.1832656,8.6325741 22.8387809,9.37061232 C22.4942962,10.1075932 22.0993171,10.8984995 21.6504771,11.7422738 C21.2038813,12.5860482 20.7561635,13.4351093 20.3084456,14.2936867 L20.1300317,14.6098378 L20.1300317,14.6299276 C20.5766275,14.1107632 21.0322001,13.601115 21.4945052,13.1020405 C21.9568104,12.6029659 22.391063,12.15253 22.795019,11.7528474 C23.1978529,11.3521075 23.5614132,11.0253828 23.8800896,10.7726735 C24.198766,10.5199641 24.4411395,10.379335 24.603844,10.3497289 C24.78338,10.3370406 24.9999453,10.3994249 25.2535399,10.540054 C25.5071344,10.680683 25.7528743,10.8604344 25.9918816,11.0782509 C26.2297668,11.2960673 26.4351111,11.5456046 26.6067923,11.8268627 C26.7784736,12.1070635 26.8648753,12.3883216 26.8648753,12.6695797 C26.8648753,12.881052 26.7369559,13.2426695 26.4833614,13.7554898 C26.2297668,14.26831 25.9324103,14.8699487 25.5890477,15.5582909 C25.3354532,16.0499639 25.0706376,16.5627842 24.794601,17.0967516 C24.5185644,17.6307191 24.266092,18.1509409 24.0405499,18.657417 C23.8138857,19.1628357 23.6276171,19.6270173 23.480622,20.0478471 C23.334749,20.4707917 23.2618126,20.8070326 23.2618126,21.0597419 L23.2618126,21.2077725 C23.2618126,21.2363213 23.2696673,21.250067 23.2842546,21.250067 C23.5086745,21.250067 23.8026647,21.0893481 24.1695914,20.7647381 C24.5342738,20.4411856 24.9314972,20.0277573 25.3657499,19.5212812 C25.7977583,19.0158625 26.2409878,18.4565183 26.6954382,17.8453635 C27.1510108,17.2331512 27.5762867,16.6367995 27.9712658,16.053136 C28.3673671,15.4705299 28.7096076,14.947136 29.0002314,14.4829544 C29.2919774,14.0187728 29.4973217,13.6751303 29.6162643,13.4499124" id="Fill-6"></path>
                                <path d="M35.9031008,12 C35.5939922,12 35.255814,12.179173 34.8885659,12.5375191 C34.5213178,12.8970138 34.1608527,13.3621746 33.8071705,13.9352986 C33.4525194,14.5072741 33.1172481,15.1527565 32.8023256,15.8694487 C32.4864341,16.5872894 32.2189922,17.2970904 32,18 C32.4631783,17.7243492 32.9341085,17.3281011 33.4108527,16.8089587 C33.8866279,16.2898162 34.3187984,15.7396631 34.7054264,15.1596478 C35.0910853,14.5796325 35.4031008,14.0145482 35.6424419,13.4643951 C35.880814,12.9153905 36,12.4732006 36,12.1366769 C36,12.0447933 35.9670543,12 35.9031008,12 M40.6572214,14.1686343 C40.7149324,14.053253 40.8270878,13.9944738 40.9925986,13.9944738 C41.1602872,13.9944738 41.3214424,14.0271289 41.4825977,14.0924391 C41.6415752,14.1577493 41.7744194,14.2480951 41.884397,14.3634765 C41.9921968,14.4799464 42.0248634,14.5964163 41.9813079,14.7107092 C41.8375748,15.0013397 41.6154419,15.4312987 41.3192647,16.0027631 C41.0230874,16.5742276 40.6528659,17.2033827 40.2118667,17.8913171 C39.7697786,18.5781629 39.2678017,19.2824249 38.7026694,20.0062798 C38.1375371,20.7301348 37.5157827,21.3886796 36.8352284,21.9819141 C36.1557629,22.5751486 35.4240309,23.0595328 34.6422101,23.4361551 C33.8614782,23.8116889 33.044813,24 32.1900368,24 C31.4648381,24 30.8430837,23.848698 30.3236847,23.5439169 C29.8010189,23.2402244 29.367642,22.8581596 29.020287,22.394457 C28.6729321,21.9318429 28.4159548,21.4246002 28.2482662,20.8738173 C28.0827554,20.3252114 28,19.7972871 28,19.2900444 C28,18.2777359 28.2449996,17.2763125 28.7382653,16.2846856 C29.2304422,15.2941472 29.877241,14.4070167 30.6819285,13.625471 C31.4844381,12.8450138 32.3882142,12.2115046 33.3954346,11.7271205 C34.4015661,11.2427363 35.4240309,11 36.4671846,11 C37.14665,11 37.6344714,11.1523905 37.9328264,11.4549946 C38.2290036,11.7586871 38.3770922,12.164699 38.3770922,12.6708532 C38.3770922,13.0474755 38.2790924,13.4774345 38.0841817,13.9629071 C37.8892709,14.4472913 37.6246714,14.95018 37.291472,15.4704848 C36.9582726,15.9918781 36.5749844,16.5056518 36.1405185,17.0118061 C35.7071415,17.5179603 35.2476313,17.9805744 34.7630766,18.4007368 C34.2763441,18.8208993 33.7809006,19.179017 33.2756571,19.47509 C32.7682358,19.7722515 32.2836811,19.9703592 31.8209042,20.0715901 C31.7621043,20.3469815 31.7348821,20.6223729 31.7348821,20.8966759 C31.7348821,21.2286695 31.7915042,21.5007954 31.9080151,21.7108767 C32.0223482,21.9198694 32.2183479,22.0254542 32.4938363,22.0254542 C33.1308351,22.0254542 33.7602117,21.8621787 34.3819662,21.5378046 C35.0037206,21.2112535 35.5982528,20.795445 36.1633851,20.2882023 C36.7263397,19.7820481 37.2598943,19.2225571 37.7586045,18.606464 C38.2584036,17.9925479 38.7026694,17.3916939 39.0935798,16.8049904 C39.4844902,16.2193754 39.8122452,15.6914511 40.0822891,15.2212174 C40.3490664,14.7509838 40.5407105,14.4004856 40.6572214,14.1686343" id="Fill-8"></path>
                                <path d="M53.5454589,26.0152626 C54.8058536,26.0152626 55.999042,25.800024 57.1272274,25.3684653 C58.2543112,24.9369066 59.3020694,24.3766374 60.2682985,23.6865761 C61.2345277,22.9965148 62.1203296,22.2274967 62.9268059,21.3795217 C63.7310788,20.5315467 64.4494156,19.6933061 65.0785112,18.8669631 C65.7076068,18.0406201 66.2430542,17.2640308 66.6826499,16.537195 C67.1211439,15.8114409 67.4659897,15.2327845 67.7149837,14.8023074 C67.8317685,14.5005408 67.9970301,14.2766494 68.2096666,14.1327965 C68.4212014,13.9900252 68.61621,13.917558 68.7913872,13.917558 C69.0690266,13.917558 69.2750527,14.0213917 69.4061602,14.2301406 C69.5383694,14.4388896 69.5009101,14.7666146 69.2970876,15.2122341 C69.002922,15.7584425 68.6040908,16.4549934 68.0994922,17.3029684 C67.5937919,18.1509434 66.9977486,19.0508352 66.3091588,19.9993991 C65.6205691,20.9468814 64.8372294,21.8965269 63.9580379,22.8450907 C63.0799483,23.7936546 62.1280418,24.6535272 61.1023185,25.4225454 C60.0787986,26.1915635 58.9836655,26.813484 57.8180207,27.2883067 C56.6545794,27.7620478 55.427237,28 54.1392987,28 C52.8061889,28 51.6868174,27.7955775 50.7778789,27.3856508 C49.8700422,26.9757241 49.1340774,26.4468213 48.5699847,25.800024 C48.0069937,25.1532268 47.6037555,24.4415335 47.3635754,23.6649441 C47.1211918,22.8883548 47,22.1333974 47,21.4000721 C47,20.3368586 47.1685668,19.2325442 47.5057003,18.0903738 C47.8417321,16.9471217 48.3066679,15.7973801 48.899406,14.6400673 C49.4932458,13.4827545 50.1917513,12.3427473 50.9971259,11.2222089 C51.8036022,10.1005889 52.6673692,9.03304891 53.5895286,8.01850739 C54.5127898,7.00612907 55.479019,6.07162601 56.4893179,5.2160798 C57.5007185,4.36053359 58.5110174,3.61963706 59.5213163,2.99447182 C60.532717,2.36930657 61.5198793,1.88150463 62.4861084,1.52782118 C63.4523376,1.17521932 64.3546656,1 65.1875838,1 C65.5974325,1 66.0821997,1.08652806 66.6385802,1.25850258 C67.1960625,1.43155871 67.7215942,1.65436847 68.2195823,1.92693186 C68.7175704,2.20057685 69.1384365,2.50666987 69.4832822,2.84304771 C69.8259245,3.18158875 70,3.51580339 70,3.84677322 C70,4.58009855 69.8699943,5.3588511 69.6143897,6.18627569 C69.3587852,7.01370028 69.0227534,7.83571686 68.6040908,8.65557024 C68.18653,9.47542363 67.7149837,10.2552578 67.1872485,10.9950727 C66.6595133,11.7359692 66.1251677,12.3935825 65.5842115,12.9679125 C65.0421537,13.5444057 64.5188254,14.0008412 64.0131251,14.3383007 C63.5074248,14.6757601 63.0656256,14.8455714 62.6844223,14.8455714 C62.1423644,14.8455714 61.7325158,14.7190242 61.4548764,14.4670112 C61.1761353,14.2160798 61.0373156,13.9748828 61.0373156,13.7445019 C61.0373156,13.5444057 61.1100307,13.3713496 61.2565626,13.2274967 C61.4030945,13.0836438 61.6454781,13.0122581 61.9804081,13.0122581 C62.2745737,13.0122581 62.608402,12.8792212 62.9807913,12.6120659 C63.3542824,12.3470737 63.738791,11.991227 64.1343169,11.5456075 C64.5298429,11.099988 64.9209619,10.5819012 65.3098774,9.9935104 C65.6965894,9.40403798 66.0524526,8.78428074 66.3763652,8.13856508 C66.6980743,7.49068622 66.974612,6.83739935 67.2092834,6.17545968 C67.4439548,5.51460161 67.5970971,4.88186516 67.670914,4.27725033 C67.3778502,4.2339863 67.1442805,4.21343589 66.9680015,4.21343589 C65.8706649,4.21343589 64.7017149,4.49681529 63.4644568,5.06465569 C62.2271987,5.63249609 60.9976528,6.39826944 59.7736156,7.36197572 C58.551782,8.32568201 57.3817302,9.44730201 56.2700709,10.7257541 C55.1573098,12.0063694 54.172351,13.3464728 53.3151945,14.7482274 C52.4591397,16.149982 51.7782621,17.5766134 51.2725618,19.0292032 C50.7679632,20.4807115 50.5145622,21.8673236 50.5145622,23.191203 C50.5145622,23.6800865 50.6247365,24.1029924 50.8439835,24.4620839 C51.0632305,24.8211753 51.327649,25.1164523 51.6361372,25.3479149 C51.9424219,25.5772143 52.2718433,25.745944 52.6232995,25.8541041 C52.9747557,25.9611826 53.2821422,26.0152626 53.5454589,26.0152626" id="Fill-10"></path>
                                <path d="M80.5740909,14.6448496 C80.7183351,14.3972986 80.8907775,14.2346813 81.093587,14.1590695 C81.2953121,14.0834577 81.4720926,14.077243 81.6228441,14.138354 C81.7735956,14.2005007 81.8863881,14.3216867 81.9579679,14.4998406 C82.0306323,14.6790303 82.0089415,14.8996511 81.8939799,15.1606672 L81.6987621,15.572907 C81.5111361,15.9457872 81.2768748,16.409816 80.9959781,16.9681005 C80.7150815,17.5253493 80.3940567,18.1178145 80.0339884,18.7444605 C79.6728355,19.3700706 79.2845691,19.9967165 78.8659354,20.6223267 C78.4473017,21.2500084 78.0156536,21.8145076 77.5688218,22.3168601 C77.1209055,22.8202484 76.6643128,23.2252378 76.1957902,23.5349355 C75.726183,23.8446332 75.2619985,24 74.8010677,24 C74.4973956,24 74.2023999,23.9098873 73.9139114,23.7317334 C73.6254229,23.5525437 73.3694707,23.3226009 73.1460548,23.0398334 C72.9226389,22.7570659 72.7382666,22.4546186 72.5961914,22.1314558 C72.4508627,21.8072572 72.3781983,21.5006667 72.3781983,21.2116846 C72.3781983,20.9775987 72.42158,20.681366 72.5083434,20.3229867 C72.1330915,20.8056594 71.7556705,21.2676166 71.3728268,21.7067866 C70.9910676,22.1480282 70.6234075,22.5405882 70.2698464,22.8844667 C69.9173699,23.2293809 69.5854997,23.5007548 69.2753203,23.70066 C68.9662255,23.9005653 68.7026815,24 68.4868574,24 C68.1549872,24 67.8383006,23.9005653 67.5357131,23.70066 C67.232041,23.5007548 66.9695816,23.2563111 66.7461657,22.9673289 C66.5227498,22.6783468 66.3427156,22.3676133 66.2049787,22.0382357 C66.0683262,21.7067866 66,21.4115898 66,21.1495379 C66,20.7787292 66.0574808,20.3861692 66.1735269,19.9728936 C66.2884885,19.559618 66.4435781,19.12977 66.6377114,18.681278 C66.8329291,18.2348575 67.0444151,17.7874012 67.2754227,17.339945 C67.5064304,16.8924887 67.7439454,16.4481398 67.9890521,16.0068982 C68.1907772,15.6505904 68.3859949,15.2953184 68.5736209,14.9441895 C68.7601623,14.5930607 68.9260974,14.25954 69.0703417,13.9425918 C69.2135014,13.6266794 69.3295475,13.3325184 69.4163109,13.0652875 C69.5030744,12.7959852 69.5464561,12.5587919 69.5464561,12.3516362 C69.5464561,12.1320512 69.7047994,12.0150083 70.021486,12.0015431 C70.3381726,11.988078 70.6928182,12.0626541 71.0810847,12.2283786 C71.4693511,12.3930674 71.8239967,12.6281891 72.1417679,12.9306364 C72.4584545,13.2341194 72.6167978,13.5904272 72.6167978,14.0047385 C72.6167978,14.1694273 72.5625706,14.3972986 72.4552008,14.6862807 C72.3467465,14.9742271 72.2057559,15.3056762 72.0333135,15.6775206 C71.8597866,16.0483293 71.6580616,16.4481398 71.4270539,16.8748805 C71.1971308,17.3016212 70.9585313,17.741827 70.7134245,18.1975695 C70.4249361,18.7330669 70.1375321,19.2644212 69.8490436,19.7864535 C69.5605552,20.3105574 69.3078566,20.7787292 69.0920325,21.190969 C68.8762084,21.6052804 68.7102733,21.938801 68.5942272,22.1925667 C68.4792656,22.4473682 68.4434757,22.5747689 68.4868574,22.5747689 C68.5736209,22.5747689 68.7352178,22.4608333 68.9738173,22.2339978 C69.2102477,22.0061266 69.4878908,21.7109298 69.8056619,21.3463358 C70.1223485,20.9817418 70.4683178,20.5612157 70.8435697,20.0868292 C71.2177371,19.611407 71.6005808,19.1256269 71.9899318,18.6305248 C72.8835954,17.4735604 73.8705296,16.1591576 74.9518192,14.6862807 C75.225124,14.1072806 75.4637235,13.6049281 75.6665331,13.1781874 C75.8671736,12.7524825 75.9680361,12.4759296 75.9680361,12.3516362 C75.9680361,12.1320512 76.1133649,12.0326165 76.4007688,12.0522963 C76.6892573,12.0740476 77.0070284,12.1734824 77.3519132,12.3516362 C77.698967,12.5308259 78.0156536,12.7659476 78.304142,13.0549298 C78.5926305,13.3439119 78.7368748,13.6318583 78.7368748,13.9218763 C78.7368748,14.1145311 78.6164905,14.4625526 78.3800601,14.9649051 C78.1414606,15.4672576 77.8573103,16.0483293 77.5243555,16.7101917 C77.2803333,17.1918286 77.0276348,17.6972885 76.7684289,18.227607 C76.5092231,18.7579256 76.2706236,19.2675285 76.0547996,19.7564159 C75.8389755,20.2442676 75.6589413,20.7000101 75.5146971,21.1184645 C75.3693683,21.5389905 75.298873,21.873547 75.298873,22.121098 C75.298873,22.2308905 75.3118875,22.2857868 75.3422547,22.2857868 C75.5862769,22.2857868 75.8563282,22.1480282 76.1524084,21.873547 C76.4474042,21.5969941 76.7575835,21.2427579 77.0818619,20.8087668 C77.4061403,20.3747756 77.7336724,19.8900314 78.0655426,19.3534981 C78.3974128,18.8159292 78.7075921,18.279396 78.9960806,17.741827 C79.2845691,17.2052938 79.548113,16.6987981 79.7845434,16.2233759 C80.0231429,15.7489894 80.2216143,15.3605725 80.3788731,15.0570894 L80.5740909,14.6655652 L80.5740909,14.6448496 Z" id="Fill-12"></path>
                                <path d="M90.6119617,15.1099868 C90.6726025,14.9945007 90.7858751,14.9351078 90.9540677,14.9351078 C91.1211161,14.9351078 91.2893087,14.9681038 91.4552129,15.0340959 C91.6234055,15.0989881 91.7641381,15.1869776 91.8774107,15.2969644 C91.9918274,15.4069512 92.0261524,15.5202376 91.9803857,15.6368236 C91.8442298,15.899692 91.6451447,16.2769468 91.3888512,16.7652882 C91.1291253,17.2558293 90.8099026,17.8035636 90.4300391,18.4106907 C90.0490314,19.0178179 89.6119595,19.6491421 89.1176793,20.307963 C88.623399,20.9656841 88.0719104,21.591509 87.4643576,22.183238 C86.8556606,22.774967 86.201197,23.3040035 85.5009666,23.7725473 C84.8018804,24.2410911 84.0570276,24.5908491 83.266408,24.825121 C82.7492444,24.941707 82.2698383,25 81.829334,25 L81.6920339,25 C80.960911,25 80.3991249,24.8328201 80.0043872,24.4962604 C79.6096495,24.1608007 79.3350494,23.7868456 79.1840193,23.3776947 C79.0307009,22.9685438 78.9734925,22.5967884 79.01125,22.2591289 C79.0501517,21.9225693 79.1302434,21.7553894 79.250381,21.7553894 C79.4952328,21.7553894 79.6588487,21.8213814 79.7412287,21.9522657 C79.824753,22.0842499 79.9059888,22.2448306 79.9815039,22.4351078 C80.0112522,22.5219974 80.0501539,22.6099868 80.0959206,22.6968764 C80.1416873,22.7859657 80.201184,22.8695557 80.2778432,22.949846 C80.3533582,23.0301364 80.4529008,23.0961285 80.5753267,23.1478223 C80.6966084,23.1984162 80.8567918,23.224813 81.0535886,23.224813 C81.296152,23.224813 81.5547338,23.1401232 81.829334,22.9718434 C82.1027899,22.8046634 82.3533626,22.5736912 82.5810518,22.2822261 C82.8098853,21.9885614 83.0009612,21.6454026 83.1519913,21.2505499 C83.3041655,20.8567972 83.3808247,20.4322481 83.3808247,19.9791025 C83.3808247,19.5545535 83.2892914,19.1608007 83.1062246,18.7945447 C82.924302,18.4293885 82.7263611,18.0565332 82.513546,17.6759789 L82.5352851,17.6979762 L82.1256733,16.9962604 C82.0501582,17.1568412 81.9609132,17.3361197 81.863659,17.532996 C81.7652606,17.7309723 81.6096538,17.9971403 81.3956946,18.3337 C81.3350537,18.450286 81.220637,18.4986802 81.0535886,18.4766828 C80.8865402,18.4546854 80.7229242,18.4029916 80.563885,18.3227013 C80.4037016,18.2435108 80.269834,18.1445227 80.1634265,18.0268368 C80.0570189,17.9102508 80.0352797,17.800264 80.0959206,17.6979762 C80.2778432,17.3768148 80.4368824,17.099648 80.5753267,16.8642763 C80.7114826,16.6311043 80.8247551,16.4254289 80.9162885,16.2505499 C81.0066777,16.0745711 81.0844811,15.9172899 81.1451219,15.7787066 C81.2057628,15.6401232 81.2664037,15.5048394 81.3270445,15.3728553 L81.3041612,15.3948526 L81.4860838,15.0230972 C81.4414613,14.7591289 81.4185779,14.5259569 81.4185779,14.3202816 C81.4185779,13.6768588 81.5432921,13.0895293 81.7950089,12.5560933 C82.0467257,12.0215574 82.3533626,11.5651122 82.7194961,11.1856577 C83.0833413,10.8051034 83.4643489,10.5114386 83.8590866,10.307963 C84.2538243,10.1022877 84.5970745,10 84.8865488,10 C85.0375789,10 85.2355198,10.0153982 85.4792275,10.0450946 C85.7217909,10.0736912 85.9586335,10.1363836 86.1863228,10.2298724 C86.4140121,10.3255609 86.6085205,10.4608447 86.7675598,10.6368236 C86.926599,10.8128025 87.0078349,11.0459745 87.0078349,11.3385394 C87.0078349,11.5871095 86.9311757,11.8092829 86.7790014,12.0072591 C86.6279714,12.2041355 86.4437604,12.4054114 86.2320895,12.6110867 C85.9883819,12.8299604 85.7492509,13.0928289 85.5135525,13.399692 C85.277854,13.7076551 85.1600048,14.0794105 85.1600048,14.5182578 C85.1600048,15.0296964 85.2538265,15.491641 85.4437583,15.899692 C85.6348342,16.3099428 85.8362076,16.7190937 86.0501669,17.1282446 L86.0501669,17.1051474 C86.3076045,17.5296964 86.5318613,17.9729432 86.7229372,18.4326881 C86.912869,18.8924329 87.0078349,19.4225693 87.0078349,20.0230972 C87.0078349,20.1396832 87.0044024,20.2705675 86.9963932,20.41685 C86.988384,20.5631324 86.9849515,20.6951166 86.9849515,20.8128025 C87.4094376,20.358557 87.8030311,19.8801144 88.1600113,19.375275 C88.5169915,18.8704355 88.83507,18.3820941 89.1176793,17.9058513 C89.3980002,17.4307083 89.649717,16.9885614 89.8705413,16.5794105 C90.0913656,16.1702596 90.2698557,15.8260009 90.4060116,15.5488341 L90.634845,15.0879894 L90.6119617,15.1099868 Z" id="Fill-14"></path>
                                <path d="M101,8.92220886 C101,9.03440779 100.878319,9.1974138 100.633841,9.40805142 C100.388247,9.61868905 100.009808,9.82615124 99.4974085,10.0314965 C98.9861255,10.2347247 98.3286022,10.4146664 97.5281875,10.5692046 C96.7266566,10.7237427 95.7766526,10.7999533 94.6792919,10.7999533 C94.5453313,11.0825676 94.409138,11.3641235 94.267363,11.6446208 C94.1255881,11.9272351 93.9815804,12.2077324 93.8331074,12.4892883 C93.4334583,13.2916165 93.0315764,14.1045296 92.6319273,14.9269689 C92.2311618,15.7494083 91.8705845,16.52845 91.5513117,17.2588016 C91.2320389,17.9902116 90.9730484,18.6591713 90.7721075,19.2646222 C90.5722829,19.8690146 90.4718125,20.3622665 90.4718125,20.7412025 C90.4718125,21.0788578 90.5834463,21.2482147 90.8055976,21.2482147 C91.2208755,21.2482147 91.6707599,21.0862672 92.1519018,20.7623721 C92.63416,20.4384771 93.1208835,20.0235527 93.6109561,19.517599 C94.0999123,19.0105869 94.5855195,18.4517091 95.068894,17.8399074 C95.5500359,17.2270472 95.9887569,16.6321811 96.381708,16.0553092 C96.7757755,15.4784373 97.1129097,14.9555479 97.3953433,14.4834656 C97.6755442,14.0135002 97.8764851,13.6642017 97.9959333,13.4398038 C98.0539829,13.3413651 98.1667331,13.2916165 98.3286022,13.2916165 C98.4927039,13.2916165 98.6590384,13.3233709 98.8309545,13.3868798 C99.0006379,13.4493301 99.1424129,13.5340086 99.2540467,13.6398566 C99.3645642,13.7457047 99.3980544,13.8547282 99.3534008,13.9669271 C99.2049278,14.2484829 98.9716131,14.6676412 98.651224,15.222285 C98.3330675,15.7790458 97.9434654,16.394023 97.483534,17.0693336 C97.0224862,17.7446441 96.5112033,18.4305395 95.9485687,19.1270197 C95.3848178,19.8234999 94.7909258,20.4596467 94.1668926,21.0365186 C93.5428594,21.6133905 92.9020812,22.0854728 92.2412088,22.4506486 C91.5803365,22.8168829 90.9250458,23 90.2731042,23 C90.0040667,23 89.6959573,22.9248479 89.3476597,22.7777191 C88.9993621,22.6305903 88.6689259,22.4157187 88.3574675,22.1331044 C88.0460091,21.8526071 87.7870186,21.5086009 87.5793796,21.1000274 C87.3706244,20.6914539 87.2668049,20.2204301 87.2668049,19.6858974 C87.2668049,19.3768211 87.3639263,18.9364932 87.5559365,18.3670307 C87.7501794,17.7975682 88.0058209,17.1466026 88.3250937,16.4141341 C88.6432501,15.6837825 89.0071765,14.89839 89.41464,14.0611319 C89.8232198,13.2238738 90.2340324,12.3844987 90.6504266,11.5398312 L91.1170561,10.5903742 C90.4639981,10.490877 89.8823858,10.3680933 89.3699864,10.2209645 C88.8587035,10.0738357 88.4277968,9.92141448 88.0794992,9.76687633 C87.7312017,9.61233817 87.4632804,9.46097545 87.2779683,9.31278818 C87.0926561,9.1646009 87,9.04922652 87,8.96454808 C87,8.7676707 87.0334902,8.62477583 87.1004705,8.53268802 C87.1663344,8.44165869 87.2668049,8.38450074 87.4007655,8.36438961 C87.5336098,8.34216152 87.7055259,8.35274633 87.9120485,8.39508555 C88.1208038,8.43742477 88.3719799,8.48717336 88.6689259,8.54327282 C89.0105255,8.61313254 89.4481301,8.69357706 89.9828562,8.78566487 C90.516466,8.87775267 91.1471972,8.9581972 91.8750498,9.02911539 C92.4086596,7.93041259 92.8496133,6.9566105 93.1990272,6.10559215 C93.5473248,5.25351532 93.7214736,4.65335685 93.7214736,4.30088283 C93.7214736,4.07542648 93.8699466,3.97698779 94.1668926,4.00450828 C94.4638386,4.03414574 94.7931584,4.13893531 95.1582011,4.32205244 C95.5210111,4.50516958 95.8514473,4.74438618 96.1483933,5.03970225 C96.4442229,5.33501832 96.592696,5.63139287 96.592696,5.92565046 C96.592696,6.2495455 96.4933418,6.6898734 96.2924009,7.24557569 C96.0925763,7.80021949 95.8213061,8.43742477 95.4808229,9.15507458 C96.3560322,9.1264956 97.1385854,9.05663589 97.8284826,8.94443695 C98.5183797,8.83117953 99.0787816,8.71898059 99.5085719,8.60678166 L99.4873615,8.62795127 C99.9606889,8.51469385 100.33243,8.46917919 100.600351,8.4903488 C100.866039,8.51151841 101,8.65547176 101,8.92220886" id="Fill-16"></path>
                                <path d="M102,18.6595017 C102,19.0083048 102.079092,19.3035336 102.240571,19.5451881 C102.399854,19.7879824 102.692054,19.9395864 103.117173,20 C103.407177,19.4859143 103.670817,18.9467513 103.903698,18.3870705 C104.137679,17.8273897 104.335408,17.2768279 104.495789,16.7388048 C104.65617,16.2019215 104.7803,15.686696 104.86818,15.1931282 C104.95606,14.7007002 105,14.2721055 105,13.908484 C105,13.3043478 104.926401,13 104.7803,13 C104.6342,13 104.407909,13.1926396 104.101428,13.5801987 C103.794947,13.9666178 103.48517,14.447647 103.171,15.0232861 C102.855731,15.5989253 102.583303,16.2133203 102.349323,16.8641915 C102.115342,17.5150627 102,18.1134994 102,18.6595017 M99.679281,22 C100.118259,22 100.530747,21.8751279 100.913907,21.6223132 C101.297067,21.370522 101.659413,21.0266121 102,20.5926305 C101.521287,20.4564995 101.070956,20.2487206 100.650899,19.9692938 C100.22895,19.6908905 99.8675497,19.3674514 99.5648061,19 C99.4020814,19.4216991 99.2667928,19.8300921 99.1608325,20.2241556 C99.0520341,20.6192426 99,20.9662231 99,21.2650972 C99,21.4964176 99.0491958,21.6775844 99.1504257,21.8065507 C99.2507096,21.9355169 99.4266793,22 99.679281,22 M109.730901,14.2065363 C109.787667,14.0772317 109.897985,14.0109495 110.061856,14.0109495 C110.224656,14.0109495 110.38103,14.0544132 110.530978,14.1413407 C110.681996,14.2293547 110.805167,14.3358409 110.905846,14.466232 C111.004383,14.5966232 111.025804,14.7270144 110.969038,14.8574055 C110.86943,15.0595119 110.723767,15.3333333 110.530978,15.6799565 C110.339259,16.0265797 110.101485,16.4090605 109.815514,16.8284855 C109.530614,17.2479104 109.20073,17.6771147 108.822648,18.1171849 C108.445637,18.5583417 108.033282,18.9701605 107.584511,19.3515547 C107.135739,19.735122 106.64841,20.0676195 106.121452,20.3479605 C105.595565,20.6304748 105.032191,20.8151956 104.434543,20.9010364 C103.794054,21.8105149 103.06788,22.5559178 102.256021,23.1328987 C101.445234,23.7098796 100.605528,24 99.7358333,24 C99.266712,24 98.8083013,23.9054664 98.358459,23.7185724 C97.9107588,23.5295052 97.512327,23.2513373 97.1631637,22.8829823 C96.8140004,22.5157138 96.5333845,22.0571715 96.3202449,21.508442 C96.1060343,20.9597125 96,20.3164493 96,19.5786526 C96,18.8864928 96.1317395,18.1747743 96.3941475,17.4445838 C96.6576266,16.717653 96.9639478,16.0483116 97.3120401,15.4419926 C97.6601323,14.8345871 98.016793,14.3358409 98.37988,13.9468405 C98.742967,13.5567536 99.024654,13.3622534 99.2238699,13.3622534 C99.3652489,13.3622534 99.5237648,13.3752925 99.6929912,13.4057172 C99.8643597,13.4339686 100.028231,13.4698261 100.184605,13.5132899 C100.440586,13.1666667 100.714776,12.8417753 101.007173,12.5386158 C101.299571,12.2354564 101.612318,11.9714142 101.946487,11.7475761 C102.280656,11.5237379 102.626606,11.3433634 102.982195,11.2064527 C103.337785,11.0684554 103.700872,11 104.071456,11 C104.613409,11 105.057896,11.0608492 105.405989,11.1847208 C105.755152,11.3075059 106.032555,11.4802742 106.239268,11.7041123 C106.445981,11.9279505 106.58736,12.1952524 106.666618,12.5060181 C106.744805,12.8167837 106.783363,13.152541 106.783363,13.5132899 C106.783363,15.4061351 106.362439,17.2185724 105.522733,18.9506018 C106.036839,18.6626546 106.524168,18.2942996 106.986863,17.8466232 C107.448487,17.3989468 107.865126,16.9447509 108.235711,16.4818623 C108.605224,16.0200602 108.919043,15.5789034 109.175024,15.1594784 C109.432077,14.7411401 109.617369,14.4227683 109.730901,14.2065363" id="Fill-18"></path>
                                <path d="M110.507553,22 C110.795166,22 111.144411,21.8024546 111.554079,21.4073637 C111.964955,21.0122728 112.409668,20.4822988 112.893051,19.8185037 C113.374018,19.1557706 113.879154,18.3868303 114.409668,17.5106207 C114.940181,16.6354732 115.469486,15.7189049 116,14.7587916 C115.823565,14.6876328 115.690634,14.5920463 115.602417,14.4720321 C115.514199,14.35308 115.502115,14.2362521 115.567372,14.1236724 C115.581873,14.0663205 115.638671,13.9282511 115.735347,13.7094642 C115.830816,13.4906774 115.879154,13.2973802 115.879154,13.1274487 C115.879154,13.0424829 115.864653,13 115.830816,13 C115.445317,13 115.032024,13.1486901 114.590937,13.4450083 C114.149849,13.7423885 113.711178,14.1268586 113.277341,14.5994808 C112.844713,15.073165 112.430211,15.6052632 112.037462,16.1978995 C111.642296,16.7915978 111.293051,17.3948549 110.987311,18.0087326 C110.683988,18.6226103 110.442296,19.2131225 110.265861,19.7760208 C110.088218,20.3410432 110,20.8285343 110,21.2374321 C110,21.7472268 110.170393,22 110.507553,22 Z M123.48966,13.9293825 C123.643159,13.6635173 123.820714,13.4910943 124.026906,13.4087762 C124.233098,13.3275705 124.423254,13.3208961 124.598517,13.3865281 C124.772635,13.4532725 124.895205,13.5867613 124.96279,13.7858821 C125.031521,13.9861153 125.005174,14.2263951 124.882604,14.5067216 C124.730251,14.8037342 124.483966,15.2431348 124.141457,15.8260359 C123.798949,16.4111618 123.395728,17.0574701 122.931796,17.7682979 C122.467863,18.4769009 121.958109,19.1988529 121.403681,19.929704 C120.849253,20.6616676 120.28566,21.3313364 119.715195,21.9375981 C119.144729,22.5438597 118.582283,23.0388806 118.029,23.4237734 C117.47228,23.8075536 116.967109,24 116.51234,24 C116.085064,24 115.70819,23.8965462 115.381719,23.6896385 C115.055248,23.4827309 114.778034,23.2524627 114.550077,23.0021712 C114.275153,22.7207323 114.048342,22.3881228 113.86506,22.0032301 C113.697815,22.2112501 113.49735,22.4292818 113.26252,22.6573252 C113.026544,22.8875933 112.77224,23.1011754 112.499608,23.3014086 C112.224685,23.5005294 111.930288,23.6673904 111.61069,23.7997668 C111.292237,23.9332556 110.965766,24 110.632422,24 C110.037901,24 109.515547,23.8709608 109.066506,23.6117701 C108.617464,23.3525793 108.237154,23.0166325 107.924429,22.6017048 C107.612849,22.189002 107.38031,21.7229036 107.227957,21.2045221 C107.075604,20.6883654 107,20.1710963 107,19.6527148 C107,19.0175306 107.109969,18.3556486 107.331053,17.6681813 C107.550992,16.980714 107.854553,16.3032583 108.242882,15.6380392 C108.631211,14.97282 109.085979,14.3443102 109.61177,13.7525099 C110.136415,13.1618219 110.705735,12.6401032 111.322021,12.1895785 C111.937161,11.7379414 112.58094,11.3786341 113.249919,11.1138813 C113.917753,10.8469037 114.587878,10.7145273 115.256858,10.7145273 C115.880017,10.7145273 116.380606,10.8035198 116.762062,10.9803925 C117.141227,11.1572651 117.437915,11.3786341 117.652126,11.6467241 C118.080548,10.6989536 118.476895,9.79790421 118.845751,8.93912627 C119.211169,8.08257314 119.533058,7.32057458 119.807981,6.6553554 C120.08405,5.99013622 120.298261,5.44283214 120.45176,5.01455558 C120.604113,4.58516661 120.680862,4.33376271 120.680862,4.26034387 C120.680862,4.12685507 120.756466,4.04676179 120.906529,4.0156144 C121.058882,3.98669183 121.246746,3.99781589 121.474703,4.05009901 C121.701515,4.10015731 121.950091,4.18692503 122.222723,4.30484013 C122.49421,4.42275524 122.743931,4.55179441 122.970743,4.69307006 C123.196409,4.83323329 123.385419,4.97784616 123.536626,5.12468384 C123.68898,5.27263392 123.764584,5.41279716 123.764584,5.54628596 C123.764584,5.85775983 123.669506,6.28937361 123.479351,6.84335212 C123.289196,7.39844305 123.038328,8.04141409 122.725603,8.77449008 C122.415169,9.50534126 122.056624,10.2929252 121.654549,11.1361294 C121.251328,11.9771088 120.836652,12.8436736 120.411667,13.7313741 C119.908787,14.7647999 119.418507,15.7859892 118.940828,16.7916049 C118.460858,17.7972205 118.042746,18.6982699 117.685346,19.4969779 C117.327946,20.2956858 117.065623,20.9386569 116.898378,21.4281158 C116.731133,21.9153499 116.708223,22.158967 116.830793,22.158967 C117.119462,22.158967 117.468844,21.9887688 117.880083,21.6483723 C118.289031,21.3079759 118.723181,20.8730249 119.18024,20.3401821 C119.635009,19.8084517 120.095505,19.2199886 120.560584,18.5770175 C121.023371,17.9329341 121.452938,17.3055367 121.849286,16.6914883 C122.243342,16.0785522 122.585851,15.5279109 122.87452,15.038452 C123.163189,14.5512179 123.369382,14.1896857 123.48966,13.9527431 L123.48966,13.9293825 Z" id="Fill-20"></path>
                                <path d="M125.7867,11 C125.516202,11 125.317836,10.904963 125.191603,10.7148891 C125.063116,10.5258712 125,10.2840549 125,9.98944034 C125,9.72333685 125.051846,9.41710665 125.156664,9.07391763 C125.261482,8.72967265 125.400113,8.40337909 125.572556,8.09503696 C125.744999,7.78563886 125.939983,7.52587117 126.157509,7.3157339 C126.373908,7.10559662 126.595943,7 126.820231,7 C127.104255,7 127.378135,7.03907075 127.640744,7.11510032 C127.902226,7.19324182 128.134404,7.30517423 128.337278,7.4530095 C128.537898,7.59873284 128.700197,7.78247096 128.819668,8 C128.940265,8.21752904 129,8.46673706 129,8.74656811 C129,8.99894403 128.921105,9.25976769 128.764441,9.52587117 C128.60665,9.79197466 128.385742,10.0348469 128.101719,10.2523759 C127.816568,10.469905 127.47619,10.6494192 127.078332,10.7898627 C126.6816,10.9303062 126.24993,11 125.7867,11 Z M129.60163,14.767622 C129.662816,14.663187 129.77499,14.6104081 129.941551,14.6104081 C130.105846,14.6104081 130.275807,14.6452197 130.449166,14.7114741 C130.621393,14.7788515 130.765293,14.8720569 130.8786,14.9922132 C130.991907,15.1123695 131.025899,15.23028 130.980576,15.3504363 C130.829878,15.6783395 130.591933,16.1454894 130.267875,16.7496399 C129.94495,17.3537904 129.565372,18.0107198 129.128007,18.7193053 C128.690643,19.4278907 128.209088,20.1566894 127.682211,20.9034553 C127.1542,21.6490983 126.608061,22.325118 126.043792,22.9292685 C125.479524,23.533419 124.899392,24.0297657 124.303398,24.4183086 C123.709669,24.8068515 123.126139,25 122.553939,25 C121.800447,25 121.186324,24.7282446 120.711568,24.1824878 C120.237945,23.6389769 120,22.9023176 120,21.9770016 C120,21.6490983 120.075916,21.2313586 120.226614,20.7237823 C120.377312,20.217329 120.5722,19.6670804 120.813544,19.0775283 C121.054888,18.4890992 121.321159,17.877088 121.615757,17.2414947 C121.909222,16.6081474 122.192489,15.999505 122.463293,15.4166907 C122.824742,14.6553263 123.132937,13.9916591 123.390144,13.4245662 C123.645084,12.8574732 123.774254,12.4913895 123.774254,12.3274379 C123.774254,12.0882482 123.923819,11.9804444 124.225216,12.0029035 C124.526612,12.0253626 124.858602,12.1331664 125.220051,12.3274379 C125.5815,12.5205863 125.912356,12.7754974 126.213753,13.0888022 C126.514016,13.4021071 126.664714,13.7232726 126.664714,14.0511758 C126.664714,14.1410123 126.627323,14.2903655 126.552541,14.4992354 C126.476625,14.7081053 126.379181,14.9506638 126.259076,15.2269111 C126.136704,15.5031583 126.001869,15.8018647 125.852304,16.1219073 C125.701605,16.4430728 125.550907,16.7597465 125.400209,17.0741742 C125.158865,17.5817505 124.899392,18.1263843 124.620657,18.7091987 C124.343055,19.2897671 124.085848,19.8501223 123.852436,20.3880184 C123.619024,20.9247915 123.426402,21.4222611 123.275704,21.8759355 C123.126139,22.3318558 123.050223,22.68671 123.050223,22.9393751 C123.050223,23.0752529 123.072884,23.1415073 123.118207,23.1415073 C123.449063,23.1415073 123.822976,22.9663261 124.236547,22.6148408 C124.65125,22.2656013 125.07955,21.8197877 125.523714,21.2830146 C125.96901,20.7462414 126.408641,20.1488287 126.846006,19.4918992 C127.282237,18.8349698 127.68561,18.1971306 128.054991,17.5772587 C128.423238,16.9585097 128.742764,16.3981545 129.0147,15.898439 C129.286637,15.3987234 129.481525,15.0292708 129.60163,14.791204 L129.60163,14.767622 Z" id="Fill-22"></path>
                                <path d="M127,19.7389853 C127,19.1184913 127.105498,18.4730474 127.31432,17.8026535 C127.523141,17.1322597 127.813533,16.4727136 128.182233,15.8240154 C128.550933,15.1742323 128.987065,14.5591622 129.493892,13.974466 C129.999631,13.3897697 130.545612,12.8788385 131.131834,12.4395027 C131.716969,11.9990821 132.327118,11.6486983 132.962283,11.3905207 C133.599623,11.1301736 134.234788,11 134.87104,11 C135.420284,11 135.886869,11.0770194 136.269708,11.2278037 C136.653635,11.3796729 136.967954,11.5738485 137.213754,11.8114152 C137.459554,12.048982 137.647711,12.3125834 137.777137,12.6011348 C137.90765,12.8896862 137.997922,13.1663051 138.047952,13.4342457 C138.09907,13.7011015 138.117559,13.9419226 138.10342,14.1577937 C138.087106,14.3747497 138.059916,14.525534 138.016411,14.6123164 L138.037076,14.6123164 C137.993571,14.7283879 137.904387,14.7826268 137.766261,14.7750334 C137.628134,14.7674399 137.491095,14.7392356 137.355144,14.688251 C137.218105,14.6383511 137.094117,14.5721796 136.986444,14.4929907 C136.877683,14.4148865 136.829828,14.3519693 136.846142,14.3096629 C136.859193,14.2814586 136.862456,14.2022697 136.857018,14.0710113 C136.848317,13.9419226 136.8059,13.8084947 136.725417,13.6707276 C136.646021,13.5340454 136.516596,13.4125501 136.334965,13.3040721 C136.154421,13.1955941 135.898833,13.1413551 135.566024,13.1413551 C135.219076,13.1413551 134.847113,13.2932243 134.449047,13.5958778 C134.050982,13.8985314 133.657267,14.2923064 133.266814,14.7750334 C132.876362,15.2577603 132.501136,15.8055741 132.140049,16.4184746 C131.777875,17.0313752 131.463555,17.6507844 131.196003,18.277787 C130.928451,18.9047897 130.710929,19.5111816 130.545612,20.0958778 C130.379207,20.6794893 130.295461,21.1806575 130.295461,21.5982977 C130.295461,22.1179072 130.447727,22.3771696 130.75117,22.3771696 C131.112257,22.3771696 131.480957,22.2187917 131.85727,21.9009513 C132.233584,21.5841956 132.597934,21.1806575 132.952495,20.6903371 C133.307056,20.2000167 133.636602,19.6597964 133.940045,19.0685915 C134.242401,18.4763017 134.509954,17.9143858 134.741615,17.3806742 C134.972188,16.8469626 135.153819,16.3783378 135.283245,15.9747997 C135.413758,15.5712617 135.479015,15.3044059 135.479015,15.1742323 C135.479015,15.0451435 135.54971,14.9659546 135.693274,14.9366656 C135.837927,14.9084613 136.017382,14.9236482 136.232729,14.9800567 C136.448076,15.0375501 136.684088,15.1199933 136.942939,15.2284713 C137.200703,15.3369493 137.437802,15.4606142 137.653149,15.5972964 C137.867409,15.7339786 138.046864,15.8771696 138.190429,16.0290387 C138.335081,16.1809079 138.406864,16.3143358 138.406864,16.4293224 C138.406864,16.588785 138.330731,16.8469626 138.178465,17.2071095 C138.028375,17.5683411 137.851094,17.9794726 137.648799,18.4415888 C137.504147,18.7583445 137.355144,19.0892023 137.205054,19.435247 C137.053876,19.7812917 136.916837,20.1208278 136.793937,20.4516856 C136.672124,20.784713 136.569889,21.0938752 136.491581,21.3824266 C136.411098,21.670978 136.370856,21.9085447 136.370856,22.0962116 C136.370856,22.1678071 136.36433,22.2036048 136.350191,22.2036048 C136.551399,22.2036048 136.808076,22.0343792 137.119132,21.6959279 C137.429101,21.3574766 137.764086,20.9246495 138.125172,20.3974466 C138.486259,19.8724132 138.850609,19.2920561 139.219309,18.6563752 C139.588009,18.0228638 139.934957,17.4067089 140.260153,16.8079105 C140.585348,16.2091121 140.87139,15.6688919 141.11719,15.1861649 C141.36299,14.7023531 141.543534,14.3454606 141.659908,14.1144025 C141.716464,13.9994159 141.829575,13.9419226 141.994892,13.9419226 C142.160209,13.9419226 142.324438,13.974466 142.483229,14.0395527 C142.642021,14.1046395 142.776884,14.1946762 142.88347,14.3096629 C142.992231,14.4257343 143.02486,14.540721 142.981355,14.6557076 C142.850842,14.944259 142.638758,15.3770861 142.34184,15.9531041 C142.04601,16.5302069 141.703412,17.1648031 141.31296,17.8568925 C140.922508,18.548982 140.499427,19.2595127 140.04263,19.9873999 C139.588009,20.715287 139.124687,21.3748331 138.655927,21.9671228 C138.186079,22.5583278 137.727107,23.0443091 137.281186,23.4261515 C136.834178,23.807994 136.421974,24 136.046748,24 C135.629105,24 135.264756,23.8947764 134.953699,23.6864987 C134.64373,23.4760514 134.380528,23.2493324 134.164093,23.0041722 C133.904154,22.7167056 133.68772,22.3771696 133.51479,21.9877336 C133.341859,22.1905874 133.140651,22.4064586 132.910078,22.6364319 C132.679504,22.86749 132.431529,23.0833611 132.165064,23.286215 C131.8986,23.487984 131.617996,23.6561248 131.323254,23.7938919 C131.027423,23.9305741 130.735944,24 130.447727,24 C129.883257,24 129.388394,23.8741656 128.963138,23.6214119 C128.535707,23.3686582 128.177883,23.0367156 127.888578,22.6255841 C127.600361,22.2144526 127.379576,21.7577603 127.227311,21.2533378 C127.075045,20.7478304 127,20.2434079 127,19.7389853" id="Fill-24"></path>
                                <path d="M153.525863,14.1355961 C153.673115,13.8745694 153.849152,13.7031001 154.05619,13.6233723 C154.262121,13.5436445 154.444801,13.5370915 154.607553,13.601529 C154.769197,13.6670587 154.886556,13.7948416 154.960735,13.9826934 C155.033807,14.1716374 155.005021,14.4042678 154.87327,14.6794926 C154.724911,14.9710997 154.512337,15.4025036 154.232227,15.9758884 C153.953225,16.5492733 153.625507,17.1838192 153.250182,17.8817105 C152.874856,18.5774175 152.457459,19.2862304 152.003526,20.0037806 C151.546271,20.7224229 151.071302,21.3799042 150.578619,21.9751323 C150.085935,22.5703604 149.584394,23.0563723 149.077318,23.4342603 C148.569134,23.811056 148.080879,24 147.609231,24 C146.888474,24 146.292825,23.7356969 145.822284,23.2049063 C145.349529,22.6752079 145.114813,21.9598421 145.114813,21.0599009 C145.114813,20.7562799 145.17792,20.3827606 145.303029,19.9382509 C145.428137,19.4959254 145.593103,19.01319 145.799034,18.4900445 C146.004965,17.9679913 146.237467,17.4240948 146.494327,16.8572629 C146.752294,16.2915231 147.005832,15.7399815 147.257156,15.202638 C146.770008,15.7683777 146.25961,16.3712509 145.72264,17.0101655 C145.184563,17.6490801 144.677487,18.277073 144.199196,18.8930522 C143.720906,19.5112157 143.297973,20.0911535 142.930397,20.63505 C142.562822,21.1800386 142.290462,21.6332857 142.11221,21.9958834 C142.098925,22.0701504 142.086746,22.1345879 142.080103,22.1924725 C142.072353,22.2514492 142.067924,22.2940435 142.067924,22.3224397 L142.11221,22.4971856 C142.126603,22.540872 142.135461,22.5911115 142.135461,22.6500882 C142.135461,22.7090649 142.142104,22.7593044 142.156497,22.8029908 L142.156497,22.7800554 C142.200783,22.9548013 142.237319,23.1153491 142.267212,23.2595144 C142.295998,23.4047719 142.295998,23.5325548 142.267212,23.6406788 C142.237319,23.749895 142.164247,23.8361758 142.046888,23.9017055 C141.928423,23.9672352 141.752385,24 141.516561,24 C141.236451,24 140.950806,23.9311938 140.656303,23.7935815 C140.3618,23.6548769 140.092761,23.4582878 139.850294,23.2049063 C139.607828,22.9515248 139.405218,22.6500882 139.243574,22.3016886 C139.081929,21.9532891 139,21.5612031 139,21.1254306 C139,20.7333445 139.059786,20.3161388 139.177145,19.8738133 C139.294503,19.4314879 139.449505,18.9738721 139.641042,18.5020583 C139.83258,18.0291523 140.049582,17.554062 140.292049,17.074603 C140.534516,16.5962362 140.780304,16.1167773 141.031628,15.6384105 C141.443489,14.8400403 141.811065,14.0951861 142.135461,13.4060321 C142.45875,12.7157859 142.620394,12.1544149 142.620394,11.7175502 C142.620394,11.4860119 142.782039,11.3625977 143.106435,11.3483996 C143.430831,11.3342015 143.790656,11.4128371 144.188125,11.587583 C144.585593,11.7612367 144.945418,12.0124338 145.269814,12.337898 C145.593103,12.6655465 145.754748,13.0467109 145.754748,13.4813912 C145.754748,13.6856255 145.700497,13.939007 145.589782,14.2448122 C145.479066,14.5495253 145.336243,14.8902798 145.159099,15.2670755 C145.615246,14.7308242 146.068072,14.2076787 146.51647,13.6998236 C146.965974,13.1919684 147.384479,12.7387213 147.775304,12.337898 C148.163915,11.939259 148.507133,11.6170713 148.801636,11.3702428 C149.096139,11.1234143 149.308713,11 149.442678,11 L149.57443,11 C149.632002,11 149.691788,11.0152903 149.750467,11.0436865 C149.927612,11.101571 150.1269,11.2064185 150.347223,11.3593212 C150.567547,11.5111316 150.773478,11.6935226 150.965015,11.9032177 C151.155446,12.1129127 151.314876,12.3466353 151.438877,12.6000168 C151.565093,12.8544905 151.627094,13.1122406 151.627094,13.3732672 C151.627094,13.5764093 151.506414,13.9433756 151.26284,14.473074 C151.020373,15.0027724 150.730299,15.6154751 150.39151,16.3133664 C150.140186,16.8212215 149.880004,17.3541964 149.607644,17.9133832 C149.335284,18.4725699 149.088389,19.0099135 148.868065,19.5254138 C148.647742,20.0398219 148.462847,20.520373 148.315595,20.9616063 C148.168344,21.4050239 148.095272,21.7577922 148.095272,22.0188188 C148.095272,22.1345879 148.108558,22.1924725 148.139558,22.1924725 C148.359882,22.1924725 148.624491,22.0395699 148.934495,21.7348568 C149.243391,21.4312358 149.577751,21.0304125 149.938683,20.5367554 C150.298509,20.0441905 150.662762,19.4959254 151.031445,18.8930522 C151.39902,18.2912711 151.745559,17.6927665 152.068848,17.0975384 C152.393244,16.5012182 152.683319,15.9464001 152.941286,15.4319919 C153.198145,14.9164916 153.394112,14.4981937 153.525863,14.1792825 L153.525863,14.1355961 Z" id="Fill-26"></path>
                            </g>
                        </g>
                    </g>
                </g>
            </g>
        </g>
    </g>
</svg>