<?xml version="1.0" encoding="utf-8"?>
<!-- Generator: Adobe Illustrator 22.0.1, SVG Export Plug-In . SVG Version: 6.00 Build 0)  -->
<svg version="1.1" id="Layer_1" xmlns="http://www.w3.org/2000/svg" xmlns:xlink="http://www.w3.org/1999/xlink" x="0px" y="0px"
	 viewBox="0 0 32 25" style="enable-background:new 0 0 32 25;" xml:space="preserve">
<style type="text/css">
	.st0{fill:#F3F3F3;}
</style>
<g id="Group-6_1_" transform="translate(1049.000000, 471.000000)">
	<g id="icon-_x2F_-audo-white" transform="translate(12.000000, 21.000000)">
		<g id="Group-6">
			<g id="Group-7">
				<path id="Combined-Shape" class="st0" d="M-1047.1-468.3l-6.4-5.3h-6c-0.5,0-0.9-0.4-0.9-0.9v-9.7c0-0.5,0.4-0.9,0.9-0.9h6
					l6.4-5.3h1.8v22H-1047.1z"/>
				<g id="Group-8" transform="translate(19.000000, 1.000000)">
					<path id="Shape-Copy" class="st0" d="M-1057.9-486c-0.6-0.5-1.5-0.4-2,0.2c-0.5,0.6-0.4,1.6,0.2,2.1c0.8,0.7,1.3,1.7,1.3,2.9
						c0,1.2-0.6,2.3-1.5,3c-0.6,0.4-0.7,1.3-0.2,1.8l0.1,0.1c0.5,0.6,1.4,0.7,2,0.2c1.5-1.2,2.5-3.1,2.5-5.2
						C-1055.4-482.9-1056.4-484.8-1057.9-486z"/>
					<path id="Shape-Copy-2" class="st0" d="M-1054-490c-0.6-0.5-1.5-0.4-2,0.2c-0.5,0.6-0.4,1.5,0.2,2c2,1.7,3.3,4.2,3.3,7
						c0,2.8-1.3,5.4-3.3,7c-0.6,0.5-0.7,1.4-0.2,2s1.4,0.7,2,0.2c2.7-2.2,4.4-5.5,4.4-9.3C-1049.6-484.5-1051.3-487.8-1054-490z"/>
				</g>
			</g>
		</g>
	</g>
</g>
</svg>
