<?xml version="1.0" encoding="UTF-8"?>
<svg width="25px" height="24px" viewBox="0 0 25 24" version="1.1" xmlns="http://www.w3.org/2000/svg" xmlns:xlink="http://www.w3.org/1999/xlink">
    <!-- Generator: Sketch 52.2 (67145) - http://www.bohemiancoding.com/sketch -->
    <title>shopcart</title>
    <desc>Created with Sketch.</desc>
    <g id="8" stroke="none" stroke-width="1" fill="none" fill-rule="evenodd">
        <g id="shopcart" transform="translate(0.000000, 1.000000)">
            <g id="Group-3" transform="translate(0.000000, 0.233652)"></g>
            <path d="M4.41059542,2.65326452 L24.3994142,2.65326452 L22.0040892,11.4579097 L6.28637788,11.4579097 L6.92564925,14.4585548 L20.5244903,14.4585548 L20.5244903,15.8585548 L5.79249269,15.8585548 L2.7073314,1.37726452 L-0.00015483871,1.37726452 L-0.00015483871,-0.0227354839 L3.84048796,-0.0227354839 L4.41059542,2.65326452 Z M4.70885791,4.05326452 L5.98811538,10.0579097 L20.9340785,10.0579097 L22.5676568,4.05326452 L4.70885791,4.05326452 Z M9.50676129,20.2817548 C9.50676129,19.5906767 8.94609745,19.0300129 8.25501935,19.0300129 C7.56394126,19.0300129 7.00327742,19.5906767 7.00327742,20.2817548 C7.00327742,20.9732968 7.56363089,21.5334968 8.25501935,21.5334968 C8.94640782,21.5334968 9.50676129,20.9732968 9.50676129,20.2817548 Z M10.9067613,20.2817548 C10.9067613,21.7465814 9.7195206,22.9334968 8.25501935,22.9334968 C6.79051811,22.9334968 5.60327742,21.7465814 5.60327742,20.2817548 C5.60327742,18.8174781 6.79074261,17.6300129 8.25501935,17.6300129 C9.7192961,17.6300129 10.9067613,18.8174781 10.9067613,20.2817548 Z M18.8490065,20.2817548 C18.8490065,19.5906767 18.2883426,19.0300129 17.5972645,19.0300129 C16.9057225,19.0300129 16.3455226,19.5903664 16.3455226,20.2817548 C16.3455226,20.9736071 16.9054122,21.5334968 17.5972645,21.5334968 C18.288653,21.5334968 18.8490065,20.9732968 18.8490065,20.2817548 Z M20.2490065,20.2817548 C20.2490065,21.7465814 19.0617658,22.9334968 17.5972645,22.9334968 C16.1322136,22.9334968 14.9455226,21.7468058 14.9455226,20.2817548 C14.9455226,18.8172536 16.132438,17.6300129 17.5972645,17.6300129 C19.0615413,17.6300129 20.2490065,18.8174781 20.2490065,20.2817548 Z" id="Combined-Shape" fill="#FFFFFF" fill-rule="nonzero"></path>
        </g>
    </g>
</svg>