<svg xmlns="http://www.w3.org/2000/svg" xmlns:xlink="http://www.w3.org/1999/xlink" width="302" height="25" viewBox="0 0 302 25">
    <defs>
        <path id="a" d="M.362.949h17.894v22.856H.362z"/>
        <path id="c" d="M.534.949h20.45v22.855H.535z"/>
        <path id="e" d="M1.082.949h17.896v22.855H1.082z"/>
        <path id="g" d="M0 .949h23.008v22.856H0z"/>
        <path id="i" d="M.956.949h15.339v22.856H.956z"/>
        <path id="k" d="M1.12.949h20.451v22.855H1.121z"/>
        <path id="m" d="M1.098.949h15.339v22.856H1.098z"/>
    </defs>
    <g fill="none" fill-rule="evenodd">
        <g transform="translate(167.778 .242)">
            <mask id="b" fill="#fff">
                <use xlink:href="#a"/>
            </mask>
            <path fill="#F3F3F3" d="M4.196 4.758h7.35c1.586 0 2.877 1.281 2.877 2.856 0 1.576-1.29 2.857-2.875 2.859H4.196V4.758zm14.06 2.856c0-3.569-2.839-6.482-6.39-6.65V.95H.361v22.856h3.834V14.28h6.491l3.489 9.524h4.08l-3.744-10.22c2.215-1.09 3.744-3.352 3.744-5.97z" mask="url(#b)"/>
        </g>
        <g transform="translate(203.73 .242)">
            <mask id="d" fill="#fff">
                <use xlink:href="#c"/>
            </mask>
            <path fill="#F3F3F3" d="M20.985.948h-4.08l-6.146 16.773L4.614.948H.534L8.76 23.403l.146.401h3.703l.19-.514z" mask="url(#d)"/>
        </g>
        <g transform="translate(45.54 .242)">
            <mask id="f" fill="#fff">
                <use xlink:href="#e"/>
            </mask>
            <path fill="#F3F3F3" d="M12.267 19.995v.001h-7.35v-5.715H12.271a2.87 2.87 0 0 1 2.871 2.858c0 1.575-1.29 2.856-2.875 2.856zm0-15.237a2.869 2.869 0 0 1 2.875 2.858c0 1.573-1.287 2.854-2.871 2.855h-.004v.001h-7.35V4.758h7.35zm4.688 7.619a6.629 6.629 0 0 0 2.023-4.76c0-3.678-3.011-6.669-6.71-6.669H1.081v22.856H12.267c3.7 0 6.711-2.99 6.711-6.665a6.625 6.625 0 0 0-2.023-4.762z" mask="url(#f)"/>
        </g>
        <path fill="#F3F3F3" d="M96.85 24.051c-1.888 0-3.617-.319-5.137-.948-1.52-.63-2.827-1.485-3.889-2.54l2.715-2.691c.704.7 1.596 1.278 2.65 1.715 1.05.435 2.282.655 3.662.655 1.655 0 2.857-.255 3.674-.779.949-.61 1.335-1.632 1.004-2.666-.21-.655-.993-1.174-2.328-1.544-.782-.216-1.574-.406-2.365-.6-1.23-.297-2.5-.603-3.748-1.004-3.157-1.013-5.065-3.652-4.75-6.567.282-2.598 2.326-4.713 5.336-5.521.84-.226 1.74-.35 2.674-.366h.003c1.923 0 3.651.32 5.169.95.749.308 1.457.68 2.104 1.1l-2.1 3.187a8.996 8.996 0 0 0-1.478-.771c-1.051-.435-2.283-.656-3.664-.656-.584.01-1.17.088-1.708.233-.551.148-2.36.747-2.522 2.253-.144 1.322 1.05 2.191 2.115 2.533 1.113.358 2.261.636 3.476.929.832.202 1.665.403 2.486.63 2.662.736 4.329 2.103 4.955 4.061.85 2.663-.185 5.484-2.579 7.018-1.456.935-3.338 1.39-5.754 1.39"/>
        <g transform="translate(0 .242)">
            <mask id="h" fill="#fff">
                <use xlink:href="#g"/>
            </mask>
            <path fill="#F3F3F3" d="M11.504 4.763c-4.23 0-7.669 3.418-7.669 7.618 0 4.202 3.44 7.619 7.669 7.619 4.228 0 7.669-3.417 7.669-7.62 0-4.2-3.441-7.617-7.669-7.617m0 19.042c-6.343 0-11.505-5.127-11.505-11.428C0 6.076 5.161.95 11.504.95c6.343 0 11.504 5.127 11.504 11.428 0 6.301-5.16 11.428-11.504 11.428" mask="url(#h)"/>
        </g>
        <g transform="translate(128.23 .242)">
            <mask id="j" fill="#fff">
                <use xlink:href="#i"/>
            </mask>
            <path fill="#F3F3F3" d="M16.295 4.758V.948H.956v22.857H16.295v-3.809H4.79v-5.715h7.669v-3.809H4.79V4.758z" mask="url(#j)"/>
        </g>
        <g transform="translate(280.429 .242)">
            <mask id="l" fill="#fff">
                <use xlink:href="#k"/>
            </mask>
            <path fill="#F3F3F3" d="M10.068 19.995v.001H4.955V4.758h5.113c4.229 0 7.668 3.417 7.668 7.619 0 4.201-3.44 7.618-7.668 7.618m11.503-7.618c0-6.301-5.16-11.429-11.503-11.429H1.12v22.856h8.948c6.343 0 11.503-5.126 11.503-11.427" mask="url(#l)"/>
        </g>
        <g transform="translate(243.278 .242)">
            <mask id="n" fill="#fff">
                <use xlink:href="#m"/>
            </mask>
            <path fill="#F3F3F3" d="M16.437 4.758V.948H1.098v22.857H16.437v-3.81H4.933v-5.714h7.669v-3.809H4.933V4.758z" mask="url(#n)"/>
        </g>
    </g>
</svg>
